<svg width="40" height="32" viewBox="0 0 40 32" fill="none" xmlns="http://www.w3.org/2000/svg">
<path opacity="0.4" d="M24.6836 6.95703C25.7429 6.95703 26.7602 7.37426 27.5009 8.11771C28.2468 8.86804 28.66 9.87591 28.6583 10.925V13.1056C28.6495 13.3614 28.4411 13.5691 28.1802 13.576H11.5112C11.252 13.5674 11.0437 13.3597 11.0382 13.1056V10.925C11.0191 8.753 12.7981 6.97935 15.0113 6.95703H24.6836ZM28.9403 0.404324C32.7872 0.404324 35.9144 3.47086 35.9144 7.24308V10.4933C35.9144 11.2145 35.3191 11.8017 34.5819 11.8017C33.8465 11.8017 33.2494 11.2145 33.2494 10.4933V7.24308C33.2494 4.91313 31.3164 3.01758 28.9403 3.01758H26.1511C25.4157 3.01758 24.8186 2.4338 24.8186 1.71267C24.8186 0.989816 25.4157 0.404324 26.1511 0.404324H28.9403ZM13.5916 0.403809C14.327 0.403809 14.9241 0.989301 14.9241 1.71215C14.9241 2.43329 14.3288 3.01878 13.5916 3.01878L10.7393 3.0205C8.37205 3.02393 6.446 4.91433 6.446 7.23742V10.4928C6.446 11.214 5.84717 11.8012 5.11177 11.8012C4.37637 11.8012 3.7793 11.214 3.7793 10.4928V7.23742C3.7793 3.47378 6.90125 0.40896 10.7376 0.405526L13.5916 0.403809Z" fill="#7B63FF"/>
<path d="M37.7745 16.2344H1.92017C1.18476 16.2344 0.585938 16.8199 0.585938 17.5427C0.585938 18.2639 1.18476 18.8476 1.92017 18.8476H3.77793V25.0872C3.77793 28.8508 6.90163 31.9156 10.738 31.919L13.5903 31.9208C14.3274 31.9208 14.9228 31.3353 14.9245 30.6124C14.9245 29.8913 14.3274 29.3058 13.592 29.3058L10.7415 29.3041C8.37243 29.3006 6.44463 27.4102 6.44463 25.0872V18.8476H11.0374V20.5835C11.0199 22.7555 12.7971 24.5309 15.0103 24.5515H24.6826C26.8975 24.5309 28.6748 22.7555 28.6572 20.5835V18.8476H33.25V25.0803C33.25 27.412 31.3169 29.3058 28.9409 29.3058H26.1516C25.4145 29.3058 24.8174 29.8913 24.8174 30.6124C24.8174 31.3353 25.4145 31.9208 26.1516 31.9208H28.9409C32.786 31.9208 35.915 28.8542 35.915 25.0803V18.8476H37.7745C38.5099 18.8476 39.1069 18.2639 39.1069 17.5427C39.1069 16.8199 38.5099 16.2344 37.7745 16.2344Z" fill="#7B63FF"/>
</svg>
