<svg width="36" height="36" viewBox="0 0 36 36" fill="none" xmlns="http://www.w3.org/2000/svg">
<path d="M34.1288 1.78064C33.2534 0.885903 31.9577 0.554973 30.7495 0.905164L2.57663 9.04535C1.30194 9.39904 0.398446 10.4093 0.155063 11.691C-0.0935723 12.9973 0.774901 14.6572 1.90952 15.3505L10.7186 20.7295C11.6221 21.2828 12.7882 21.1444 13.5359 20.395L23.6231 10.3078C24.1309 9.78075 24.9713 9.78075 25.4791 10.3078C25.9869 10.8138 25.9869 11.6385 25.4791 12.1638L15.3744 22.251C14.625 23.0005 14.4849 24.1631 15.0364 25.0683L20.4189 33.9107C21.0492 34.9595 22.1348 35.5565 23.3254 35.5565C23.4655 35.5565 23.6231 35.5565 23.7632 35.5373C25.1289 35.3639 26.2145 34.4342 26.6172 33.121L34.9693 5.15998C35.337 3.96933 35.0043 2.67363 34.1288 1.78064Z" fill="#7B63FF"/>
<path opacity="0.4" d="M13.1593 30.7831C13.6706 31.2961 13.6706 32.1278 13.1593 32.6409L10.7675 35.0309C10.5119 35.2883 10.1757 35.4161 9.83954 35.4161C9.50336 35.4161 9.16717 35.2883 8.91153 35.0309C8.3985 34.5179 8.3985 33.6879 8.91153 33.1749L11.3016 30.7831C11.8146 30.2718 12.6463 30.2718 13.1593 30.7831ZM11.7871 24.1505C12.2984 24.6635 12.2984 25.4952 11.7871 26.0083L9.39532 28.3983C9.13968 28.6557 8.8035 28.7835 8.46731 28.7835C8.13113 28.7835 7.79495 28.6557 7.53931 28.3983C7.02628 27.8853 7.02628 27.0553 7.53931 26.5423L9.92936 24.1505C10.4424 23.6392 11.2741 23.6392 11.7871 24.1505ZM5.20144 22.0627C5.71271 22.5757 5.71271 23.4074 5.20144 23.9204L2.80963 26.3105C2.55399 26.5679 2.21781 26.6957 1.88163 26.6957C1.54544 26.6957 1.20926 26.5679 0.95362 26.3105C0.44059 25.7974 0.44059 24.9675 0.95362 24.4545L3.34367 22.0627C3.8567 21.5514 4.68841 21.5514 5.20144 22.0627Z" fill="#7B63FF"/>
</svg>
